<?xml version="1.0" encoding="UTF-8" standalone="no"?>
<!-- Created with Inkscape (http://www.inkscape.org/) -->

<svg
   xmlns:dc="http://purl.org/dc/elements/1.1/"
   xmlns:cc="http://creativecommons.org/ns#"
   xmlns:rdf="http://www.w3.org/1999/02/22-rdf-syntax-ns#"
   xmlns:svg="http://www.w3.org/2000/svg"
   xmlns="http://www.w3.org/2000/svg"
   xmlns:sodipodi="http://sodipodi.sourceforge.net/DTD/sodipodi-0.dtd"
   xmlns:inkscape="http://www.inkscape.org/namespaces/inkscape"
   width="100.00001mm"
   height="100.00001mm"
   viewBox="0 0 354.33073 354.33073"
   id="svg4139"
   version="1.1"
   inkscape:version="0.91 r13725"
   sodipodi:docname="cow.svg">
  <defs
     id="defs4141" />
  <sodipodi:namedview
     id="base"
     pagecolor="#ffffff"
     bordercolor="#666666"
     borderopacity="1.0"
     inkscape:pageopacity="0.0"
     inkscape:pageshadow="2"
     inkscape:zoom="11.313708"
     inkscape:cx="164.09958"
     inkscape:cy="249.0539"
     inkscape:document-units="px"
     inkscape:current-layer="layer1"
     showgrid="false"
     inkscape:window-width="1920"
     inkscape:window-height="1020"
     inkscape:window-x="0"
     inkscape:window-y="0"
     inkscape:window-maximized="1"
     units="mm"
     fit-margin-top="0"
     fit-margin-left="0"
     fit-margin-right="0"
     fit-margin-bottom="0" />
  <metadata
     id="metadata4144">
    <rdf:RDF>
      <cc:Work
         rdf:about="">
        <dc:format>image/svg+xml</dc:format>
        <dc:type
           rdf:resource="http://purl.org/dc/dcmitype/StillImage" />
        <dc:title />
      </cc:Work>
    </rdf:RDF>
  </metadata>
  <g
     inkscape:label="Layer 1"
     inkscape:groupmode="layer"
     id="layer1"
     transform="translate(175.39372,-873.42554)">
    <path
       style="fill:none;stroke:#000000;stroke-width:0.19999997;stroke-miterlimit:4;stroke-dasharray:none"
       d="m -140.76977,1178.0766 c -0.001,-2.1055 0.27507,-4.7132 0.61186,-5.7154 0.33649,-1.1033 0.72768,-7.1198 0.87042,-13.1974 0.3733,-16.0951 -2.23886,-41.7866 -4.94772,-48.6453 -1.63056,-4.2121 -1.64399,-9.9285 -0.026,-11.3319 0.72198,-1.1033 1.16421,-1.8055 1.16421,-2.9087 0,-3.61 1.73666,-1.2033 3.18794,3.0087 1.08091,3.1088 2.53242,6.3176 2.63287,8.3231 0.14964,3.0088 1.44049,4.0111 1.74652,6.1176 0.37839,2.7077 1.88658,4.011 2.93427,6.2176 0.004,0.01 1.15079,1.7044 2.23245,3.1078 4.28715,5.6164 4.56682,-7.3199 9.01999,-12.4042 3.27104,-3.7099 1.52944,5.4154 1.52944,7.3209 0,6.4176 -0.23416,9.2253 -0.85902,10.6697 -0.47622,1.1023 -1.13327,3.3088 -1.46878,4.8132 -0.92444,4.3121 -1.77353,5.9165 -2.91955,5.9165 -0.56694,0 -1.21503,0 -1.43985,1.0023 -0.22486,1.0032 -0.64917,10.2486 -0.94224,21.6305 -0.51693,19.996 -0.56654,20.6782 -1.79235,21.9615 -0.71138,1.0033 -1.14677,2.2066 -2.7464,2.0055 -1.90252,0 -3.89173,-1.4033 -4.99655,-1.4033 -0.85152,0 -1.68733,1.0022 -2.53818,1.0022 -1.46242,0 -1.2516,-5.0651 -1.25333,-7.4909 z m 71.920106,-7.4809 c 0,-2.4066 -0.02431,-5.1143 -0.586639,-8.9242 -1.15653,-7.822 -3.549116,-16.1961 -5.320665,-18.9438 -0.762134,-1.2033 -1.752989,-3.61 -2.278186,-5.6155 -0.525473,-2.0055 -1.586273,-4.9132 -2.367194,-6.4176 -0.783189,-1.5044 -1.412357,-3.811 -1.412357,-5.0143 0,-2.6066 -2.854866,-11.0008 -5.374436,-15.694 -0.591651,-1.1032 -1.680786,-2.1055 -1.769044,-3.3088 -0.08542,-1.2033 0.834532,-2.3066 1.243375,-3.4099 0.684214,-1.9055 1.243384,-4.4121 1.243384,-5.8164 0,-2.3056 1.812614,-6.3177 2.848449,-6.3177 0.650315,0 2.972355,3.3099 2.972355,4.3121 0,1.0033 0.283592,1.3044 0.923284,1.6045 0.455076,0 1.454605,1.9054 2.10418,3.2098 1.438549,3.0077 7.03283,7.6209 9.269129,7.6209 1.233547,0 1.595258,0 1.877145,-1.7044 0.308859,-1.5044 0.58864,-1.7055 2.387772,-1.7055 3.099259,0 4.054629,1.8055 3.552526,6.7187 -0.561572,5.4154 -0.727034,5.8165 -2.645492,5.8165 -1.393494,0 -1.774157,0 -2.356785,2.1056 -1.473217,4.5131 -0.335936,8.7252 3.435298,12.9663 0.912552,1.0032 1.97171,2.8087 2.353476,4.012 0.758123,2.3056 0.428199,9.3253 -0.62876,13.5074 -0.35499,1.5044 -0.446243,3.7099 -0.213594,5.6154 0.367023,2.9088 0.592661,3.3099 2.312059,4.1121 2.149608,1.0022 3.819874,3.5099 4.438603,6.5176 0.229638,1.1033 0.861409,3.6099 1.405226,5.6155 1.145902,4.3121 1.48164,6.8197 -1.257613,7.7219 -2.276462,1.0033 -5.713565,3.5099 -8.110663,1.9055 -3.484937,-2.4066 -3.251054,1.2361 -7.583572,0.9848 -2.587588,-0.1501 -0.461261,-7.0013 -0.461261,-11.4745 z m 111.046276,-24.2971 c 0.365023,-2.3066 -0.517441,-20.5583 -1.339241,-27.7681 -0.481342,-4.3121 -1.078414,-6.4176 -2.653615,-9.6264 -2.016736,-4.2121 -1.834024,-4.3121 -1.912544,-11.2819 -0.09552,-8.5242 -3.270538,-8.2231 -3.289692,-12.1341 l -0.04661,-9.5264 c -0.02551,-5.2143 -0.254714,-9.9275 -0.511429,-10.4797 -0.633771,-1.5043 -2.641482,-1.8044 -6.604053,-1.4033 -5.173857,1.0022 -10.36098,1.1023 -9.282938,2.9077 0.356,1.0033 -1.447144,1.5044 -1.447144,1.5044 l 0.702969,8.2231 c 0.3941,4.6122 0.778177,8.022 -0.228638,8.2231 -1.253503,0 -3.258605,-10.1486 -2.934299,-11.613 0.443243,-2.0055 -0.922574,-3.2088 -3.5341747,-3.2088 -4.8528598,0 -5.8952726,-2.0055 -2.0045012,-3.811 1.2985289,-1.0022 3.1542129,-2.1055 4.1234219,-3.2088 1.328211,-1.6044 2.185005,-2.2055 3.478419,-2.2055 0.94464,0 2.689916,0 3.880041,-1.0033 2.523952,-1.0032 7.111772,-5.3143 7.111772,-6.5186 0,-1.5034 4.454746,-10.5487 5.539979,-10.5487 l 2.671163,0 c 1.332022,0 1.826704,0 2.323593,-1.6044 0.313879,-1.0033 0.452265,-2.4076 0.271759,-3.3099 -0.919574,-4.6131 -0.869431,-6.5176 -0.404133,-7.3198 0.586639,-1.0033 0.502408,-1.8055 0.27477,-3.4099 -0.298836,-2.1055 -0.285793,-3.1088 0.436221,-3.4099 0.505408,0 0.842354,-2.0055 0.891486,-4.6121 0.04051,-2.2066 0.379056,-5.5154 0.752101,-7.4209 0.572596,-2.8077 0.521453,-4.1121 -0.322902,-7.5209 -0.840343,-3.5099 -0.895497,-4.71323 -0.337946,-7.72199 0.580618,-3.10879 0.515441,-4.11105 -0.51444,-7.72196 -1.888276,-6.81874 -0.907541,-9.8275 2.328706,-7.31986 0.822299,1.00225 1.41716,1.90548 1.628551,3.50989 0.232649,1.70443 0.872442,2.70769 1.926783,3.80997 0.937619,1.00325 1.909536,1.90548 2.249686,2.50763 0.883464,1.60441 0.836342,4.3121 -0.04961,5.21433 -0.388088,0 -0.63277,1.70443 -0.543518,2.90774 0.09833,1.40435 -0.165462,2.50765 -0.674881,3.00875 -0.821299,1.0033 -2.983925,4.2793 -2.733439,4.7132 0.158666,0.2748 1.47422,1.0033 2.210076,1.0033 0.524463,0 1.406831,-1.9055 2.391984,-3.2099 1.436613,-2.0055 1.121533,-3.0077 1.482341,-7.52086 0.425188,-5.31435 1.265637,-6.31761 1.591547,-1.70444 0.134375,1.90549 0.440232,2.70769 1.200855,2.70769 1.459679,0.10003 1.350775,-3.81097 -0.171483,-7.32086 -0.951662,-2.20556 -1.063973,-3.00776 -0.595661,-4.31209 0.562572,-1.50439 2.329984,-2.08584 2.368717,-3.16578 0.14472,-4.03504 -1.91134,-4.95629 -2.381053,-5.85952 -4.351458,-8.02203 -8.041067,-12.28412 -10.06783,-12.28412 -1.112809,0 -2.175378,-1.00225 -3.866202,-3.00776 -4.043298,-4.91425 -5.936334,-6.60002 -9.402071,-8.32412 -1.449335,-0.721 -3.182893,0.94504 -3.182893,-2.10553 0,-2.45664 5.145141,-0.89101 9.109252,0 2.841941,0.63878 8.596018,2.40661 13.096834,4.41212 4.294399,1.90548 10.411902,3.30984 16.007226,3.71094 3.111394,0 5.800608,1.10228 7.245946,1.50338 3.821779,1.90549 11.284771,3.40987 17.20151,3.5099 5.835612,0 9.451711,1.00325 11.308793,1.80545 0.877422,1.10328 1.172067,1.50439 1.33824,4.3121 0.320881,5.41538 0.55254,6.11655 3.036877,8.72422 1.44434,1.50438 2.40011,3.20881 2.68259,4.71319 0.22666,1.20331 1.15202,3.10879 2.03941,4.21207 1.01865,1.10328 1.86851,3.00777 2.30634,5.21433 1.02798,4.91325 1.62425,6.21759 3.45024,7.32089 2.08052,1.3033 5.46618,1.3033 6.4382,0 0.70197,-1.0033 2.65461,-6.91979 3.31506,-10.24864 0.23866,-1.30433 1.31607,-2.30658 4.33261,-4.31209 2.43629,-1.60441 4.14286,-3.10879 4.35014,-4.01202 0.34599,-1.50338 -0.047,-9.92752 -0.69197,-14.72074 -0.47232,-3.50989 0.7692,-3.60992 3.1516,0 0.94165,1.40436 2.92066,3.50989 4.44112,4.91425 3.10919,2.80771 3.14559,2.90774 11.87603,0 2.78869,-1.00326 6.88685,-1.70543 9.17304,-1.70543 3.57348,0 4.54601,0 7.13053,1.40435 2.93328,1.50438 2.97702,1.50438 2.96076,4.21107 -0.025,4.3121 -1.971,7.42089 -6.20865,9.8275 -5.48933,3.20981 -11.231,4.01202 -17.66217,2.50764 -1.10439,0 -1.85959,0 -3.11751,1.2033 -1.86862,1.90549 -4.42757,6.51766 -4.42757,8.12206 0,1.10328 -0.90253,3.20985 -1.98114,5.81645 -2.06967,5.0143 -3.45123,13.2474 -3.44973,20.3472 0,4.2121 1.12504,16.2851 1.62494,17.5485 0.50943,1.4043 -1.68852,3.7109 -3.98764,4.5131 -1.40713,0 -5.11369,1.1033 -13.23326,0 -12.12676,-1.0032 -14.66953,-1.0032 -16.760377,-3.0088 -1.1812,-1.2033 -1.29973,-1.5043 -0.918533,-3.911 0.842314,-5.3143 0.66887,-8.8242 -0.484323,-9.4263 -0.913532,-1.0023 -1.567979,-0.1001 -4.656613,3.2098 -3.823482,4.111 -5.308729,5.1143 -7.511989,5.1143 -0.837312,0 -2.306945,1.0022 -3.648895,2.3056 -2.354178,2.4076 -4.59564,3.0087 -5.936688,1.7054 -1.155929,-1.1033 -2.926677,-0.01 -3.923261,2.6066 -0.954663,2.5077 -2.549223,3.711 -3.796509,2.9088 -1.298428,-1.0033 -4.077191,1.5044 -5.3329,4.4121 -0.998794,2.3066 -1.502498,2.7077 -2.486347,2.7077 -0.936618,0 -1.284489,-1.0033 -1.393293,-2.2066 -0.280781,-3.1088 -0.569595,-3.7099 -1.550533,-2.9077 -0.457276,0 -0.738057,1.0023 -0.624749,1.4034 0.113319,0 0.358001,1.9054 0.541518,3.4098 0.139385,1.1033 1.260121,2.7077 0.334935,2.7077 l -1.885669,0 c -1.638378,0 -1.997682,-1.0032 -2.740758,-2.6077 -0.652826,-1.9044 -1.154024,-2.4066 -2.120525,-2.4066 -2.239457,0 -2.599663,2.9088 -0.808255,6.6187 2.066173,4.3121 1.481238,5.5154 -2.833116,6.5187 -3.148598,1.0022 -3.423567,1.0022 -2.422068,2.5066 2.157629,3.3088 2.487952,4.5122 2.178788,7.922 -0.227638,2.5067 -0.683914,3.711 -1.585129,4.7132 -1.379054,1.5044 -1.174181,3.6099 0.334935,3.6099 1.09536,0 0.966705,1.0033 -0.145407,1.9055 -1.0018,1.0033 -0.860409,1.1033 -0.02941,2.0055 0.846365,1.0033 0.86442,1.0033 1.877546,0 0.441232,0 1.133768,-1.0022 1.438018,0 0.631771,1.0033 0.06382,5.9165 -0.635771,5.9165 -0.278781,0 -0.506419,1.2033 -0.506419,2.5077 0,1.5034 -0.422177,3.4088 -0.936618,4.7132 -1.292711,3.0077 -0.813266,6.3176 2.06116,13.3163 2.558248,6.2176 2.848961,8.9253 1.473818,12.7963 -0.887485,2.5066 -0.844364,2.6077 0.953663,7.5209 1.687314,4.6132 2.035487,5.1143 3.95134,5.9165 3.233234,1.4044 5.303419,3.5099 5.303419,5.7165 0,2.7067 -0.484353,3.5089 -2.928784,4.8132 -3.1853,1.6044 -9.419118,4.3121 -9.407987,1.0022 0.0081,-2.4066 -4.556933,-1.5043 -4.558149,-3.4543 -0.0012,-1.95 -1.772669,-1.85 -1.537713,-3.1533 z m -21.602315,-9.4264 c -1.68551,-1.4044 -1.580015,-2.1066 0.465299,-5.1143 0.995783,-1.5044 1.736652,-3.0088 1.737855,-3.6109 9.32e-4,-1.0023 0.107297,-3.71 0.23766,-6.9188 0.267748,-6.5187 -0.174484,-9.5264 -2.055042,-14.3306 -0.977728,-2.5067 -0.968706,-3.1078 -0.633771,-3.5089 0.490365,-1.0033 0.62675,-1.8055 1.451957,-1.6054 0.845365,0 3.102669,1.4043 4.170253,1.4043 1.163149,0 2.143488,0 2.299324,-1.0032 0.349979,-1.1023 2.316272,-1.1023 3.398596,0 0.961684,1.0032 0.907541,1.4043 0.06892,3.3098 -0.704969,1.7044 -0.910542,4.4121 -0.910542,11.883 0,9.3264 0.102286,9.6275 1.290406,10.6897 1.082123,1.0033 1.188621,1.4044 0.912552,2.6077 -0.319891,1.4034 0.0143,1.9055 0.951662,2.9077 0.844364,1.0033 1.9684,1.5044 2.761014,1.5044 1.129657,0 1.526867,1.1033 1.88617,2.4066 0.369034,1.8055 0.220616,2.5077 -0.849376,4.2121 -1.204064,1.9055 -1.493072,2.0055 -4.023542,1.9055 -1.49568,0 -2.85969,0 -3.492358,1.0022 -0.825309,1.2033 -7.027135,2.4066 -8.631016,1.0033 -1.511022,-1.4044 -1.907831,-3.8282 -1.908797,-5.4426 -9.65e-4,-1.6144 2.148838,-2.3994 0.872776,-3.3016 z m -2.060962,-40.7044 c -1.27396,-2.2055 -1.830214,-8.022 -1.068887,-7.1198 1.211886,1.5044 1.70025,3.1088 3.595647,2.7077 4.24135,-1.0032 3.760306,0 3.961168,1.1033 0.180506,1.0022 -0.659848,1.8044 -2.189919,3.3088 -2.106787,2.0055 -2.856482,2.8077 -4.298009,0 z m -4.793795,-72.3624 c 1.031382,-3.7099 2.271246,-7.4198 3.645586,-10.7297 0.8243,-2.0055 1.110904,-2.8077 0.70698,-4.9132 -0.790211,-4.1121 -0.734057,-4.3121 0.79021,-4.2121 3.572081,0 1.77506,-3.3088 1.492972,-3.911 -0.66887,-1.40435 -1.373939,-2.10553 -1.405126,-4.41211 -0.02941,-2.20656 -0.377056,-3.40987 -1.30976,-4.61317 -1.727226,-2.20656 -1.638077,-4.61318 -0.03651,-5.31435 1.687113,-1.00326 3.862692,1.00225 4.321675,2.10553 0.184517,1.00226 1.358997,2.00551 2.337832,3.40987 1.336635,1.90448 2.536888,4.01102 3.748474,5.5154 1.425082,1.80446 2.514325,3.10779 3.125032,4.31213 1.373337,2.7067 1.434307,4.6121 1.758613,12.4841 0.305858,7.4209 0.222627,9.4264 -0.43522,10.2486 -0.7872,1.1033 -0.90453,1.1033 -2.399104,0.1001 -1.348567,-1.0033 -1.52847,-1.4044 -1.301937,-2.8087 0.161451,-1.0023 -0.08072,-2.6067 -0.523463,-3.71 -0.443243,-1.1033 -0.817288,-2.8077 -0.831321,-4.111 -0.0131,-1.2043 -0.403123,-3.1088 -0.86442,-4.4132 -0.461287,-1.3033 -0.843354,-3.1087 -0.848376,-4.211 -0.0094,-2.0055 -0.800233,-2.5077 -1.401616,-1.0033 -0.194539,1.0033 -0.352989,1.9055 -0.352989,3.1088 0,1.3033 -0.411145,3.1088 -0.912552,4.4121 -0.770156,1.8055 -0.802244,2.6077 -0.210584,5.0143 0.760123,3.1088 0.406134,12.3942 -0.607694,15.864 -0.937618,3.2088 -3.112397,5.2144 -5.96958,5.2144 -3.105376,0 -4.04801,-3.91 -4.120288,-5.4089 -0.07228,-1.4989 1.044806,-6.012 1.603166,-8.0176 z m -98.406662,-0.9022 c -3.514821,-8.7242 -6.477609,-9.4264 -13.67767,-10.8707 -2.959068,-1.0023 -4.026148,-3.2089 -5.450718,-9.9276 -0.92148,-4.31206 -3.58829,-10.49863 -5.78943,-13.33735 -1.066,-1.50339 -1.68078,-3.80997 -2.91678,-11.21085 -0.86101,-5.21433 -1.94239,-10.5997 -2.40227,-12.00405 -1.59479,-4.81322 -0.98174,-7.62094 3.7844,-17.54846 2.99597,-6.3176 5.11565,-8.92527 6.98482,-8.92527 0.65122,0 2.95515,-1.00225 5.120397,-2.10553 3.27127,-1.70544 4.317051,-2.00551 6.186194,-1.70544 4.364505,1.00326 9.7416,5.71646 13.167433,12.35514 5.537633,10.69972 9.733797,31.33696 9.210034,45.30651 -0.428199,11.4219 -1.580316,11.763 -10.450067,3.10879 -3.443572,-3.30984 -3.090033,-5.81648 -7.016846,-5.81648 -5.129647,0 -0.713492,6.41764 1.229014,13.62849 0.977228,3.6099 5.250551,10.8397 7.661748,14.9218 1.881136,3.2088 2.390332,10.3955 -1.944945,10.3955 -1.770918,0 -2.52712,-3.3567 -3.695314,-6.2645 z m 81.8862523,-3.6099 c 1.3370356,-1.0033 2.29330755,-1.8055 2.29330755,-2.3066 0,-1.1033 0.39309987,-1.0022 0.87344189,-1.1033 1.41034026,-1.1032 1.08102066,-2.0055 -0.36502273,-1.7044 -0.80023329,0 -1.42778871,0 -1.77526001,-1.0033 -0.7180024,-1.3033 -1.0852317,-1.3033 -2.9592687,1.0033 -1.1096999,1.0023 -1.5947557,2.0055 -1.5947557,3.3088 0,2.3066 -0.8824661,3.2089 -2.774051,3.2089 -2.6772806,0 -3.6287386,-1.1023 -3.6287386,-3.81 0,-2.3066 -0.142399,-2.5076 -1.338841,-2.5076 -1.690724,0 -2.735744,1.0032 -2.735744,2.6076 0,2.1055 -0.63678,1.0033 -2.028268,1.0033 -1.993169,0 -2.761415,1.0022 -2.537088,-2.1066 0.171479,-2.4066 0.05569,-2.7077 -0.81929,-2.5066 -1.303642,0 -1.282984,0 0.251703,-3.7109 1.172677,-2.7067 1.526766,-2.4067 3.201446,-3.0078 2.202052,-1.0033 3.215885,-2.0055 4.13024,-1.0033 1.454765,1.6044 1.057856,0 1.584427,0 0.485356,0 0.873441,-1.0022 0.873441,-1.2033 0,-1.5044 2.003297,-1.2033 3.3543725,0 2.2860876,2.0055 1.997782,-1.5044 3.9087211,-2.2055 2.0694827,-1.0033 2.5664709,-2.40764 3.6071793,-3.50992 0.77015565,-1.00326 1.00641167,-3.10879 0.58362826,-4.21207 -0.2015612,-1.00326 -1.64459476,1.80546 -2.06236186,2.80771 -0.5856388,1.40436 -1.137579,1.70443 -2.4439289,1.70443 -1.3318212,0 -1.7664356,0 -2.0672762,-1.50338 -0.2236248,-1.00325 -0.1133167,-1.60441 0.2697536,-1.90548 0.3890868,0 0.5966675,-1.80546 0.5154399,-3.911 -0.1544312,-4.01101 0.9877599,-7.01978 2.2876922,-5.81647 0.4281987,0 0.7791779,1.2033 0.7791779,1.6044 0,1.10328 0.6277495,1.50439 1.393594,1.90549 1.31457298,1.00325 1.37674677,1.00325 1.09616349,0 -0.22161629,-1.00326 -0.002117,-1.10328 0.87645265,-1.10328 1.35408296,0 3.48934946,3.81097 3.61901136,6.01653 0.076319,1.30433 1.0479282,1.80546 1.165256,2.50763 0.1744843,1.00226 0.3830673,1.10328 0.8513763,1.40336 0.5705949,0 1.0812207,2.70765 1.5500308,7.12085 0.3850778,3.5089 0.9185633,6.4176 1.1859132,6.4176 0.267748,0 0.4873638,1.1033 0.4873638,1.8044 0,1.3044 -0.4502543,2.6077 -1.9790297,3.711 -1.365916,1.0022 -2.6181151,2.0055 -3.5509211,3.2088 -0.6448038,1.0033 -0.893497,1.0033 -1.7854896,1.2033 -1.64910688,0 -1.6480046,1.4044 -2.8378289,2.3066 -1.2713519,1.0023 -2.1803919,3.2088 -3.1588264,3.6099 -1.1827045,1.0033 -1.3171796,0.01 -1.0113249,-2.0055 0.1915386,-1.3033 -0.3981112,-2.8077 0.3518323,-3.8105 0.7499436,-1.0027 1.1695172,-1.6049 2.3623502,-2.5071 z M -148.15603,955.42508 c 0.55574,-3.20882 2.83494,-6.21758 4.74736,-6.21758 2.73193,0 2.92993,1.00225 2.92993,14.63071 0,4.21207 -1.52674,8.72422 0,12.70523 0.48842,1.30433 -0.64557,-1.00225 2.73362,3.00876 2.87706,3.20882 4.46883,6.61869 6.34251,13.79851 1.24811,4.81322 1.49273,13.18739 0.44132,15.16289 -0.91994,1.7044 -1.40121,2.5066 -3.9744,2.4066 -6.46787,0 -7.00223,-2.8077 -8.2822,-10.5197 -1.27996,-7.71196 -6.55248,-35.66006 -4.93814,-44.97542 z m 115.472067,32.16917 c 0,-3.10779 0.372044,-4.51215 0.873442,-5.21433 0.651825,-1.00225 0.873442,-1.90548 0.873442,-3.40986 0,-1.50339 0.339946,-2.80772 0.809265,-3.20882 0.876453,-1.00225 1.257414,-2.20556 2.190622,-8.32311 0.948651,-6.41763 1.758813,-7.72096 4.253985,-9.32537 1.336836,-1.00326 2.370725,-1.50438 2.500989,-1.90549 0.562571,-1.70543 1.731839,-1.00325 2.029871,1.90549 0.216605,2.10553 0.888483,3.20881 3.13165,5.71545 6.0605343,6.81873 6.3037138,8.22309 3.931586,12.07407 -1.798225,2.90774 -2.634662,0 -8.049291,1.70443 -2.142587,0 -4.644678,4.41212 -5.312343,8.02204 -0.258723,1.40435 4.064155,1.80546 4.25178,2.90874 0.272762,1.6044 -1.147908,4.41212 -3.713877,5.9165 -2.547318,1.50438 -5.756769,0.0884 -6.515548,-1.38599 -0.758778,-1.47437 -1.255573,-1.86284 -1.255573,-5.47375 z M 20.348125,977.1556 c -0.682935,-0.73494 -0.702654,-0.87106 -1.30976,-1.50439 -0.854381,-0.89129 -1.594655,-2.00551 -1.943128,-2.90774 -0.46931,-1.40435 -1.068486,-1.90548 -2.312663,-2.10653 -1.440725,0 -1.779271,-1.00226 -2.087532,-2.60666 -0.266748,-1.40436 -1.183407,-3.40987 -2.24046,-4.91425 -2.131757,-3.00777 -3.060853,-7.31986 -1.5047047,-7.31986 1.1769887,0 4.4888427,1.30333 5.7910807,2.80771 0.8233,1.00226 1.680195,2.30659 2.410736,3.911 0.731046,1.6044 2.540699,4.11104 3.97601,5.41437 1.574098,1.50438 3.002589,3.40987 3.515823,4.81422 0.957673,2.60667 1.308677,10.86977 0.296825,10.86977 -2.42626,0 -2.487149,-2.00551 -2.590107,-3.5299 -0.102957,-1.52439 -1.461683,-2.34615 -2.00212,-2.92774 z m -20.85666548,3.40986 c -0.00178,-3.10879 -3.26151352,-4.21207 -5.22159042,-10.50967 -0.8573949,-2.70769 -1.8427485,-4.61317 -3.0279601,-5.71645 -2.384763,-2.30659 -4.319269,-5.31435 -5.085409,-8.12206 -0.683911,-2.50764 -6.351848,-10.14858 -10.763043,-14.52069 -2.028267,-2.00551 -2.657125,-3.10879 -2.657125,-4.41212 0,-1.60441 0.180506,-1.80546 1.701555,-1.80546 0.9667,0 2.525556,1.00325 3.430986,1.50438 3.065766,2.10554 6.543784,4.41212 9.557004,5.5154 0.473322,0 1.633865,1.10328 2.395393,1.10328 0.7611259,0 2.0094789,-2.8e-4 2.7726467,1.00226 0.7634976,1.00297 3.7154815,2.10653 6.48141011,3.40986 2.85999059,1.30333 4.56996889,2.00551 4.78075749,2.40661 0.8734419,1.70444 -1.0481283,2.30659 -1.3097597,2.50664 -1.2630289,1.00326 -2.61580854,2.00551 -1.59555836,2.80771 2.75830766,2.10654 3.36841266,5.31535 3.80021836,7.12081 0.4803421,2.00551 0.3239023,3.91 0.7731564,4.41212 0.8965078,1.00226 2.1376731,5.01428 2.1376731,6.81874 0,1.50438 -1.9574316,1.60848 -3.6059751,0 -1.8452276,-1.80039 -2.4084651,-0.002 -0.7511008,2.40661 1.3097273,1.90344 1.4214923,2.50763 1.0165403,4.51314 -0.6277283,3.10879 -4.82692639,4.61218 -4.82899277,1.00226 z"
       id="path4706"
       inkscape:connector-curvature="0"
       sodipodi:nodetypes="ssssssssssssssssssssssssssssssssssssssssssssssssssssssssssssssssssssssssssssssssssssssssssssssssssssssssssssssssssssssssssssssssssssssssssssssssssssssssssssssssssssssssssssssssssssssssssssssssssssssssssssssssssssssssssssssssssssssssssssssssssssssssssssssssssssssssssssssssssssssssssssssssssssssssssssssssssssssssssssssssssssssssssssssssssssssssssssssssssssssssssss" />
  </g>
</svg>
